<svg width="94" height="145" viewBox="0 0 94 145" fill="none" xmlns="http://www.w3.org/2000/svg">
<g filter="url(#filter0_d_409_1186)">
<path d="M52.3444 61.8221L35.2814 61.5528L17.4532 48.5166C11.0763 67.749 11.1967 76.063 17.6656 93.4157C45.0482 109.813 46.973 110.966 73.8428 93.4157C77.7378 77.0396 77.8257 66.4549 64.8281 47.7501L52.3444 61.8221Z" fill="#FFE4F2" fill-opacity="0.5" shape-rendering="crispEdges"/>
<path d="M35.2814 61.5528L52.3444 61.8221M35.2814 61.5528L17.4532 48.5166C11.0763 67.749 11.1967 76.063 17.6656 93.4157C45.0482 109.813 46.973 110.966 73.8428 93.4157C77.7378 77.0396 77.8257 66.4549 64.8281 47.7501L52.3444 61.8221M35.2814 61.5528L25.2955 63.8221M52.3444 61.8221L64.4487 64.5992M32.6848 86.7592L39.6962 91.9192L46.814 86.1765M46.814 86.1765L54.9942 91.9192L61.851 86.1765M46.814 86.1765L42.7977 83.4268M46.814 86.1765L49.5375 82.4241M23.7386 79.5551L29.7238 75.4566L40.6673 77.8673M51.7022 77.8673L57.6874 73.7688L68.6309 76.1796M4.27271 86.3767L23.2209 84.6182M9.78944 97.9686L25.1059 89.9413M71.5221 81.4481L91.3711 83.0325M70.0615 86.8426L89.8964 92.8817M35.3784 57.227L36.589 48.7443M32.1452 54.5451L30.6655 37.2295" stroke="#340468" stroke-opacity="0.5" stroke-width="2" shape-rendering="crispEdges"/>
</g>
<g clip-path="url(#clip0_409_1186)">
<g filter="url(#filter1_d_409_1186)">
<path d="M99.0245 -10.6779L81.9613 -10.9472L64.1332 -23.9835C57.7563 -4.75098 57.8766 3.56298 64.3456 20.9158C91.7281 37.3133 93.653 38.4659 120.523 20.9158C124.418 4.53962 124.506 -6.04516 111.508 -24.75L99.0245 -10.6779Z" fill="#FFE4F2" fill-opacity="0.5"/>
<path d="M81.9613 -10.9472L99.0244 -10.6779M81.9613 -10.9472L64.1331 -23.9834C57.7563 -4.75096 57.8766 3.56301 64.3456 20.9158C91.7281 37.3133 93.653 38.4659 120.523 20.9158C124.418 4.53964 124.506 -6.04514 111.508 -24.75L99.0244 -10.6779M81.9613 -10.9472L71.9753 -8.67791M99.0244 -10.6779L111.129 -7.90079M79.3648 14.2592L86.3761 19.4192L93.494 13.6765M93.494 13.6765L101.674 19.4192L108.531 13.6765M93.494 13.6765L89.4777 10.9268M93.494 13.6765L96.2175 9.92411M70.4186 7.05508L76.4038 2.95657L87.3473 5.36735M98.3822 5.36735L104.367 1.26883L115.311 3.67961M50.9526 13.8767L69.9009 12.1182M56.4694 25.4686L71.7858 17.4413M118.202 8.94807L138.051 10.5325M116.742 14.3426L136.576 20.3816M82.0583 -15.273L83.269 -23.7557M78.8251 -17.9549L77.3455 -35.2705" stroke="#340468" stroke-opacity="0.5" stroke-width="2"/>
</g>
</g>
<g clip-path="url(#clip1_409_1186)">
<g filter="url(#filter2_d_409_1186)">
<path d="M5.02412 -10.6779L-12.0389 -10.9472L-29.8671 -23.9835C-36.2439 -4.75098 -36.1236 3.56298 -29.6547 20.9158C-2.27207 37.3133 -0.347248 38.4659 26.5224 20.9158C30.4174 4.53962 30.5055 -6.04516 17.5078 -24.75L5.02412 -10.6779Z" fill="#FFE4F2" fill-opacity="0.5"/>
<path d="M-12.0389 -10.9472L5.0241 -10.6779M-12.0389 -10.9472L-29.8671 -23.9834C-36.2439 -4.75096 -36.1237 3.56301 -29.6547 20.9158C-2.27209 37.3133 -0.347268 38.4659 26.5224 20.9158C30.4174 4.53964 30.5054 -6.04514 17.5078 -24.75L5.0241 -10.6779M-12.0389 -10.9472L-22.0249 -8.67791M5.0241 -10.6779L17.1284 -7.90079M-14.6356 14.2592L-7.6241 19.4192L-0.506284 13.6765M-0.506284 13.6765L7.6739 19.4192L14.5307 13.6765M-0.506284 13.6765L-4.52258 10.9268M-0.506284 13.6765L2.2172 9.92411M-23.5817 7.05508L-17.5965 2.95657L-6.653 5.36735M4.38191 5.36735L10.3671 1.26883L21.3106 3.67961M-43.0476 13.8767L-24.0994 12.1182M-37.5309 25.4686L-22.2144 17.4413M24.2019 8.94807L44.0508 10.5325M22.7413 14.3426L42.5761 20.3816M-11.9419 -15.273L-10.7313 -23.7557M-15.1751 -17.9549L-16.6548 -35.2705" stroke="#340468" stroke-opacity="0.5" stroke-width="2"/>
</g>
</g>
<g clip-path="url(#clip2_409_1186)">
<g filter="url(#filter3_d_409_1186)">
<path d="M99.0394 134.405L81.9244 134.137L64.042 121.201C57.6458 140.286 57.7665 148.536 64.2551 165.756C91.7209 182.028 93.6516 183.172 120.603 165.756C124.51 149.506 124.598 139.002 111.561 120.44L99.0394 134.405Z" fill="#FFE4F2" fill-opacity="0.5"/>
<path d="M81.9245 134.137L99.0395 134.404M81.9245 134.137L64.0421 121.201C57.6458 140.286 57.7666 148.536 64.2552 165.756C91.721 182.028 93.6517 183.171 120.603 165.756C124.51 149.505 124.598 139.001 111.561 120.44L99.0395 134.404M81.9245 134.137L71.9081 136.389M99.0395 134.404L111.18 137.16M79.32 159.15L86.3527 164.271L93.4923 158.572M93.4923 158.572L101.697 164.271L108.575 158.572M93.4923 158.572L89.4637 155.843M93.4923 158.572L96.224 154.848M70.3466 152.001L76.35 147.934L87.3268 150.326M98.3953 150.326L104.399 146.259L115.375 148.652M50.8215 158.771L69.8274 157.026M56.355 170.274L71.718 162.308M118.275 153.88L138.185 155.452M116.81 159.233L136.706 165.226M82.0218 129.844L83.2361 121.427M78.7788 127.183L77.2946 110" stroke="#340468" stroke-opacity="0.5" stroke-width="2"/>
</g>
</g>
<g clip-path="url(#clip3_409_1186)">
<g filter="url(#filter4_d_409_1186)">
<path d="M5.0393 134.405L-12.0756 134.137L-29.958 121.201C-36.3542 140.286 -36.2335 148.536 -29.745 165.756C-2.27908 182.028 -0.348405 183.172 26.603 165.756C30.5098 149.506 30.5981 139.002 17.5609 120.44L5.0393 134.405Z" fill="#FFE4F2" fill-opacity="0.5"/>
<path d="M-12.0755 134.137L5.03938 134.404M-12.0755 134.137L-29.9579 121.201C-36.3541 140.286 -36.2335 148.536 -29.7449 165.756C-2.27899 182.028 -0.348314 183.171 26.603 165.756C30.5099 149.505 30.5982 139.001 17.561 120.44L5.03938 134.404M-12.0755 134.137L-22.0919 136.389M5.03938 134.404L17.1805 137.16M-14.68 159.15L-7.64727 164.271L-0.507814 158.572M-0.507814 158.572L7.69724 164.271L14.5749 158.572M-0.507814 158.572L-4.53631 155.843M-0.507814 158.572L2.22395 154.848M-23.6534 152.001L-17.65 147.934L-6.67322 150.326M4.39524 150.326L10.3986 146.259L21.3754 148.652M-43.1785 158.771L-24.1726 157.026M-37.645 170.274L-22.282 162.308M24.2755 153.88L44.1848 155.452M22.8104 159.233L42.7056 165.226M-11.9782 129.844L-10.7639 121.427M-15.2213 127.183L-16.7055 110" stroke="#340468" stroke-opacity="0.5" stroke-width="2"/>
</g>
</g>
<defs>
<filter id="filter0_d_409_1186" x="3.18018" y="37.1445" width="88.2705" height="71.0049" filterUnits="userSpaceOnUse" color-interpolation-filters="sRGB">
<feFlood flood-opacity="0" result="BackgroundImageFix"/>
<feColorMatrix in="SourceAlpha" type="matrix" values="0 0 0 0 0 0 0 0 0 0 0 0 0 0 0 0 0 0 127 0" result="hardAlpha"/>
<feOffset dx="-1" dy="1"/>
<feComposite in2="hardAlpha" operator="out"/>
<feColorMatrix type="matrix" values="0 0 0 0 0.567902 0 0 0 0 0.0788368 0 0 0 0 0.995833 0 0 0 0.42 0"/>
<feBlend mode="normal" in2="BackgroundImageFix" result="effect1_dropShadow_409_1186"/>
<feBlend mode="normal" in="SourceGraphic" in2="effect1_dropShadow_409_1186" result="shape"/>
</filter>
<filter id="filter1_d_409_1186" x="49.8601" y="-35.3555" width="88.2705" height="71.0049" filterUnits="userSpaceOnUse" color-interpolation-filters="sRGB">
<feFlood flood-opacity="0" result="BackgroundImageFix"/>
<feColorMatrix in="SourceAlpha" type="matrix" values="0 0 0 0 0 0 0 0 0 0 0 0 0 0 0 0 0 0 127 0" result="hardAlpha"/>
<feOffset dx="-1" dy="1"/>
<feComposite in2="hardAlpha" operator="out"/>
<feColorMatrix type="matrix" values="0 0 0 0 0.567902 0 0 0 0 0.0788368 0 0 0 0 0.995833 0 0 0 0.42 0"/>
<feBlend mode="normal" in2="BackgroundImageFix" result="effect1_dropShadow_409_1186"/>
<feBlend mode="normal" in="SourceGraphic" in2="effect1_dropShadow_409_1186" result="shape"/>
</filter>
<filter id="filter2_d_409_1186" x="-44.1401" y="-35.3555" width="88.2705" height="71.0049" filterUnits="userSpaceOnUse" color-interpolation-filters="sRGB">
<feFlood flood-opacity="0" result="BackgroundImageFix"/>
<feColorMatrix in="SourceAlpha" type="matrix" values="0 0 0 0 0 0 0 0 0 0 0 0 0 0 0 0 0 0 127 0" result="hardAlpha"/>
<feOffset dx="-1" dy="1"/>
<feComposite in2="hardAlpha" operator="out"/>
<feColorMatrix type="matrix" values="0 0 0 0 0.567902 0 0 0 0 0.0788368 0 0 0 0 0.995833 0 0 0 0.42 0"/>
<feBlend mode="normal" in2="BackgroundImageFix" result="effect1_dropShadow_409_1186"/>
<feBlend mode="normal" in="SourceGraphic" in2="effect1_dropShadow_409_1186" result="shape"/>
</filter>
<filter id="filter3_d_409_1186" x="49.7302" y="109.914" width="88.5332" height="70.4785" filterUnits="userSpaceOnUse" color-interpolation-filters="sRGB">
<feFlood flood-opacity="0" result="BackgroundImageFix"/>
<feColorMatrix in="SourceAlpha" type="matrix" values="0 0 0 0 0 0 0 0 0 0 0 0 0 0 0 0 0 0 127 0" result="hardAlpha"/>
<feOffset dx="-1" dy="1"/>
<feComposite in2="hardAlpha" operator="out"/>
<feColorMatrix type="matrix" values="0 0 0 0 0.567902 0 0 0 0 0.0788368 0 0 0 0 0.995833 0 0 0 0.42 0"/>
<feBlend mode="normal" in2="BackgroundImageFix" result="effect1_dropShadow_409_1186"/>
<feBlend mode="normal" in="SourceGraphic" in2="effect1_dropShadow_409_1186" result="shape"/>
</filter>
<filter id="filter4_d_409_1186" x="-44.2698" y="109.914" width="88.5332" height="70.4785" filterUnits="userSpaceOnUse" color-interpolation-filters="sRGB">
<feFlood flood-opacity="0" result="BackgroundImageFix"/>
<feColorMatrix in="SourceAlpha" type="matrix" values="0 0 0 0 0 0 0 0 0 0 0 0 0 0 0 0 0 0 127 0" result="hardAlpha"/>
<feOffset dx="-1" dy="1"/>
<feComposite in2="hardAlpha" operator="out"/>
<feColorMatrix type="matrix" values="0 0 0 0 0.567902 0 0 0 0 0.0788368 0 0 0 0 0.995833 0 0 0 0.42 0"/>
<feBlend mode="normal" in2="BackgroundImageFix" result="effect1_dropShadow_409_1186"/>
<feBlend mode="normal" in="SourceGraphic" in2="effect1_dropShadow_409_1186" result="shape"/>
</filter>
<clipPath id="clip0_409_1186">
<rect width="44.8636" height="37.2297" fill="white" transform="translate(49.1365)"/>
</clipPath>
<clipPath id="clip1_409_1186">
<rect width="44.8636" height="37.2297" fill="white"/>
</clipPath>
<clipPath id="clip2_409_1186">
<rect width="45" height="35" fill="white" transform="translate(49 110)"/>
</clipPath>
<clipPath id="clip3_409_1186">
<rect width="45" height="35" fill="white" transform="translate(0 110)"/>
</clipPath>
</defs>
</svg>
